<svg width="804" height="70" viewBox="0 0 804 70" fill="none" xmlns="http://www.w3.org/2000/svg">
<g clip-path="url(#clip0_1_89)">
<path d="M651.7 53.39H646.23V68.43H626.06V8.60001H654.87C671.54 8.60001 682.14 17.32 682.14 31.16C682.14 39.79 678.04 46.29 670.86 49.96L683.42 68.42H661.88L651.71 53.38L651.7 53.39ZM653.58 24.16H646.23V38.18H653.58C659.14 38.18 661.79 35.53 661.79 31.17C661.79 26.81 659.14 24.16 653.58 24.16Z" fill="#A5759D"/>
<path d="M0 0H21.51V26.41H43.02V0H64.53V68.46H43.02V42.05H21.51V68.46H0V0Z" fill="#A5759D"/>
<path d="M103.16 8.39001C121.63 8.39001 133.93 20.71 133.93 39.16C133.93 57.61 121.61 69.93 103.16 69.93C84.71 69.93 72.39 57.61 72.39 39.16C72.39 20.71 84.71 8.39001 103.16 8.39001ZM103.16 53.5C110.32 53.5 114.97 47.77 114.97 39.17C114.97 30.57 110.34 24.84 103.16 24.84C95.98 24.84 91.35 30.57 91.35 39.17C91.35 47.77 95.98 53.5 103.16 53.5Z" fill="#A5759D"/>
<path d="M174.83 44.82V9.66H193.38V46.34C193.38 60.07 185.12 69.94 166.57 69.94C148.02 69.94 139.84 60.07 139.84 46.34V9.66H158.39V44.82C158.39 51.31 163.19 53.5 166.57 53.5C169.95 53.5 174.83 51.3 174.83 44.82Z" fill="#A5759D"/>
<path d="M217.64 26.35C217.64 27.53 217.98 29.14 227.51 30.98C242.09 33.85 245.89 41.69 245.89 50.21C245.89 62.61 239.23 69.94 223.05 69.94C213.01 69.94 206.86 67.83 199.28 64.72L204.67 50.9C210.4 53.52 215.72 55.19 220.77 55.19C224.49 55.19 228.61 54.51 228.61 52.57C228.61 50.63 227.09 50.46 217.81 48.11C204.41 44.65 200.36 37.48 200.36 27.95C200.36 17.24 207.86 8.38 222.44 8.38C232.98 8.38 238.29 10.49 245.87 13.6L240.48 27.42C234.75 24.8 230.27 23.13 224.63 23.13C221 23.13 217.64 24.31 217.64 26.34" fill="#A5759D"/>
<path d="M252.63 9.66H293.6V25.67H271.18V32.41H289.23V45.89H271.18V52.64H295.29V68.65H252.63V9.66Z" fill="#A5759D"/>
<path d="M352.64 18.59C368.04 18.59 378.31 28.86 378.31 44.26C378.31 59.66 368.04 69.93 352.64 69.93C337.24 69.93 326.97 59.66 326.97 44.26C326.97 28.86 337.24 18.59 352.64 18.59ZM352.64 56.23C358.62 56.23 362.49 51.45 362.49 44.27C362.49 37.09 358.62 32.31 352.64 32.31C346.66 32.31 342.79 37.09 342.79 44.27C342.79 51.45 346.66 56.23 352.64 56.23Z" fill="#A5759D"/>
<path d="M382.27 19.63H415.76V33H397.75V38.63H412.1V49.89H397.75V68.88H382.29V19.63H382.27Z" fill="#A5759D"/>
<path d="M706.68 10.9H688.53V68.65H706.68V10.9Z" fill="#A5759D"/>
<path d="M523.59 26.56H507.91V10.88H557.4V26.56H541.72V68.63H523.57V26.56H523.59Z" fill="#A5759D"/>
<path d="M446.5 61.7L453.6 45.62C459.77 49.27 468 51.6 475.2 51.6C481.46 51.6 483.71 50.29 483.71 48.05C483.71 39.82 447.53 46.46 447.53 22.06C447.53 9.91 457.72 0 478.01 0C486.8 0 495.86 1.87 502.69 5.7L496.05 21.69C489.6 18.42 483.52 16.83 477.82 16.83C471.37 16.83 469.31 18.7 469.31 20.94C469.31 28.79 505.49 22.25 505.49 46.37C505.49 58.34 495.3 68.43 475.02 68.43C464.08 68.43 453.05 65.72 446.51 61.7" fill="#A5759D"/>
<path d="M590.64 8.39001C609.11 8.39001 621.41 20.71 621.41 39.16C621.41 57.61 609.09 69.93 590.64 69.93C572.19 69.93 559.87 57.61 559.87 39.16C559.87 20.71 572.19 8.39001 590.64 8.39001ZM590.64 53.5C597.8 53.5 602.45 47.77 602.45 39.17C602.45 30.57 597.82 24.84 590.64 24.84C583.46 24.84 578.83 30.57 578.83 39.17C578.83 47.77 583.46 53.5 590.64 53.5Z" fill="#A5759D"/>
<path d="M712.75 9.66H753.72V25.67H731.3V32.41H749.34V45.89H731.3V52.64H755.41V68.65H712.75V9.66Z" fill="#A5759D"/>
<path d="M775.61 26.35C775.61 27.53 775.95 29.14 785.48 30.98C800.06 33.85 803.86 41.69 803.86 50.21C803.86 62.61 797.2 69.94 781.02 69.94C770.98 69.94 764.83 67.83 757.25 64.72L762.64 50.9C768.37 53.52 773.69 55.19 778.74 55.19C782.46 55.19 786.58 54.51 786.58 52.57C786.58 50.63 785.06 50.46 775.78 48.11C762.38 44.65 758.33 37.48 758.33 27.95C758.33 17.24 765.83 8.38 780.41 8.38C790.95 8.38 796.26 10.49 803.84 13.6L798.45 27.42C792.72 24.8 788.24 23.13 782.6 23.13C778.96 23.13 775.61 24.31 775.61 26.34" fill="#A5759D"/>
</g>
<defs>
<clipPath id="clip0_1_89">
<rect width="803.86" height="69.94" fill="white"/>
</clipPath>
</defs>
</svg>
