<?xml version="1.0" encoding="utf-8"?><!-- Uploaded to: SVG Repo, www.svgrepo.com, Generator: SVG Repo Mixer Tools -->
<svg width="800px" height="800px" viewBox="0 0 24 24" fill="none" xmlns="http://www.w3.org/2000/svg">
  <!-- TikTok Logo -->
  <path d="M19.321 5.562a5.124 5.124 0 0 1-.443-.258 6.228 6.228 0 0 1-1.137-.966c-.849-.849-1.349-2.016-1.349-3.338h-3.89v13.973c0 .665-.269 1.269-.703 1.703a2.41 2.41 0 0 1-1.703.703c-1.33 0-2.406-1.076-2.406-2.406s1.076-2.406 2.406-2.406c.249 0 .489.038.714.108V8.847c-.238-.033-.48-.05-.714-.05-3.314 0-6.003 2.689-6.003 6.003s2.689 6.003 6.003 6.003 6.003-2.689 6.003-6.003V8.539c1.081.668 2.34 1.056 3.689 1.056V6.006c-.665 0-1.269-.269-1.703-.703-.434-.434-.703-1.038-.703-1.703 0-.033 0-.066.003-.099z" fill="#FF0050"/>
  <path d="M19.321 5.562a5.124 5.124 0 0 1-.443-.258 6.228 6.228 0 0 1-1.137-.966c-.849-.849-1.349-2.016-1.349-3.338h-3.89v13.973c0 .665-.269 1.269-.703 1.703a2.41 2.41 0 0 1-1.703.703c-1.33 0-2.406-1.076-2.406-2.406s1.076-2.406 2.406-2.406c.249 0 .489.038.714.108V8.847c-.238-.033-.48-.05-.714-.05-3.314 0-6.003 2.689-6.003 6.003s2.689 6.003 6.003 6.003 6.003-2.689 6.003-6.003V8.539c1.081.668 2.34 1.056 3.689 1.056V6.006c-.665 0-1.269-.269-1.703-.703-.434-.434-.703-1.038-.703-1.703 0-.033 0-.066.003-.099z" fill="#25F4EE"/>
  <path d="M16.392 0c0 1.322.5 2.489 1.349 3.338.434.434 1.038.703 1.703.703v3.589c-1.349 0-2.608-.388-3.689-1.056V14.8c0 3.314-2.689 6.003-6.003 6.003s-6.003-2.689-6.003-6.003 2.689-6.003 6.003-6.003c.234 0 .476.017.714.05v3.828c-.225-.07-.465-.108-.714-.108-1.33 0-2.406 1.076-2.406 2.406s1.076 2.406 2.406 2.406c1.33 0 2.406-1.076 2.406-2.406V0h3.89z" fill="#000000"/>
</svg>