<svg width="679" height="80" viewBox="0 0 679 80" fill="none" xmlns="http://www.w3.org/2000/svg">
<g clip-path="url(#clip0_374_30)">
<path d="M8.26 78.8299H0V0.669922H8.26V78.8299ZM57.95 42.7699H7.37V35.5099H57.95V42.7699ZM57.17 0.669922H65.32V78.8299H57.17V0.669922Z" fill="white"/>
<path d="M122.71 79.5C116.83 79.5 111.38 78.51 106.35 76.54C101.33 74.57 96.9701 71.78 93.2901 68.17C89.6101 64.56 86.7401 60.35 84.6901 55.55C82.6401 50.75 81.6201 45.48 81.6201 39.75C81.6201 34.02 82.6401 28.75 84.6901 23.95C86.7401 19.15 89.6001 14.94 93.2901 11.33C96.9801 7.72 101.31 4.93 106.3 2.96C111.29 0.99 116.76 0 122.71 0C128.66 0 134.02 0.99 139.01 2.96C144 4.93 148.33 7.71 152.02 11.28C155.71 14.85 158.57 19.06 160.62 23.9C162.67 28.74 163.69 34.02 163.69 39.76C163.69 45.5 162.67 50.78 160.62 55.62C158.57 60.46 155.71 64.66 152.02 68.24C148.34 71.81 144 74.59 139.01 76.56C134.02 78.53 128.59 79.52 122.71 79.52V79.5ZM122.71 72.13C127.4 72.13 131.74 71.33 135.72 69.73C139.7 68.13 143.16 65.86 146.1 62.92C149.04 59.98 151.33 56.55 152.97 52.65C154.61 48.74 155.43 44.44 155.43 39.75C155.43 35.06 154.61 30.76 152.97 26.85C151.33 22.94 149.04 19.52 146.1 16.58C143.16 13.64 139.7 11.37 135.72 9.77C131.74 8.17 127.4 7.37 122.71 7.37C118.02 7.37 113.67 8.17 109.65 9.77C105.63 11.37 102.13 13.64 99.1501 16.58C96.1701 19.52 93.8601 22.95 92.2301 26.85C90.5901 30.76 89.7701 35.06 89.7701 39.75C89.7701 44.44 90.5901 48.65 92.2301 52.59C93.8701 56.54 96.1701 59.98 99.1501 62.92C102.13 65.86 105.63 68.13 109.65 69.73C113.67 71.33 118.02 72.13 122.71 72.13Z" fill="white"/>
<path d="M211.48 79.4999C201.5 79.4999 193.65 76.6399 187.92 70.8999C182.19 65.1699 179.32 56.6799 179.32 45.4399V0.669922H187.58V45.1099C187.58 54.3399 189.66 61.1499 193.83 65.5399C198 69.9299 203.88 72.1299 211.47 72.1299C219.06 72.1299 225.05 69.9299 229.22 65.5399C233.39 61.1499 235.47 54.3399 235.47 45.1099V0.669922H243.51V45.4499C243.51 56.6899 240.66 65.1799 234.97 70.9099C229.28 76.6399 221.44 79.5099 211.47 79.5099H211.48V79.4999Z" fill="white"/>
<path d="M287.75 79.5C281.94 79.5 276.38 78.55 271.06 76.65C265.74 74.75 261.62 72.32 258.72 69.34L261.96 62.98C264.71 65.66 268.42 67.91 273.07 69.73C277.72 71.56 282.62 72.47 287.75 72.47C292.88 72.47 296.66 71.86 299.75 70.63C302.84 69.4 305.11 67.75 306.56 65.66C308.01 63.58 308.74 61.27 308.74 58.74C308.74 55.69 307.86 53.23 306.12 51.37C304.37 49.51 302.08 48.04 299.25 46.96C296.42 45.88 293.29 44.93 289.87 44.11C286.45 43.29 283.02 42.42 279.6 41.49C276.18 40.56 273.03 39.31 270.16 37.75C267.29 36.19 264.99 34.12 263.24 31.55C261.49 28.98 260.62 25.61 260.62 21.44C260.62 17.57 261.64 14.02 263.69 10.78C265.74 7.54 268.88 4.94 273.13 2.96C277.37 0.99 282.81 0 289.43 0C293.82 0 298.18 0.61 302.49 1.84C306.81 3.07 310.53 4.76 313.66 6.92L310.87 13.51C307.52 11.28 303.96 9.64 300.21 8.6C296.45 7.56 292.82 7.04 289.32 7.04C284.63 7.04 280.76 7.67 277.71 8.94C274.66 10.21 272.41 11.9 270.95 14.02C269.5 16.14 268.77 18.54 268.77 21.22C268.77 24.27 269.64 26.73 271.39 28.59C273.14 30.45 275.45 31.9 278.31 32.94C281.17 33.98 284.32 34.91 287.75 35.73C291.17 36.55 294.58 37.44 297.97 38.41C301.36 39.38 304.48 40.63 307.35 42.15C310.21 43.68 312.52 45.71 314.27 48.24C316.02 50.77 316.89 54.08 316.89 58.18C316.89 61.98 315.85 65.49 313.76 68.73C311.68 71.97 308.49 74.57 304.21 76.55C299.93 78.52 294.44 79.51 287.74 79.51H287.75V79.5Z" fill="white"/>
<path d="M340.89 71.6899H387.9V78.8399H332.63V0.669922H386.23V7.81992H340.9V71.6899H340.89ZM340 35.6199H381.31V42.6599H340V35.6199Z" fill="white"/>
<path d="M457.16 31.18V1.52002H460.08V31.17H457.16V31.18Z" fill="white"/>
<path d="M485.23 31.1799H482.39V19.0999C482.39 16.5599 482.01 14.6999 481.26 13.5199C480.51 12.3399 479.32 11.7599 477.71 11.7599C476.6 11.7599 475.5 12.0299 474.41 12.5699C473.32 13.1099 472.37 13.8399 471.55 14.7699C470.73 15.6999 470.14 16.7499 469.78 17.9399V31.1899H466.94V9.49992H469.53V14.4399C470.11 13.3899 470.88 12.4699 471.83 11.6799C472.78 10.8899 473.85 10.2699 475.05 9.82992C476.25 9.38992 477.49 9.16992 478.77 9.16992C479.97 9.16992 480.98 9.38992 481.82 9.82992C482.65 10.2699 483.32 10.8999 483.82 11.7199C484.32 12.5399 484.68 13.5199 484.91 14.6699C485.13 15.8199 485.24 17.0999 485.24 18.5099V31.1799H485.23Z" fill="white"/>
<path d="M501.52 30.2999C501.3 30.3799 500.95 30.5399 500.48 30.7599C500.01 30.9799 499.44 31.1799 498.77 31.3399C498.1 31.5099 497.38 31.5899 496.6 31.5899C495.82 31.5899 495.03 31.4399 494.32 31.1299C493.61 30.8199 493.05 30.3499 492.63 29.7299C492.21 29.0999 492 28.3199 492 27.3999V11.7599H488.99V9.5099H492V2.1499H494.84V9.4999H499.85V11.7499H494.84V26.6099C494.89 27.3899 495.18 27.9799 495.7 28.3699C496.22 28.7599 496.81 28.9599 497.48 28.9599C498.26 28.9599 498.97 28.8299 499.61 28.5599C500.25 28.2899 500.64 28.1099 500.78 27.9999L501.53 30.2999H501.52Z" fill="white"/>
<path d="M514.09 31.5899C512.53 31.5899 511.08 31.2899 509.75 30.6999C508.41 30.0999 507.26 29.2799 506.28 28.2399C505.3 27.1999 504.55 25.9999 504 24.6399C503.45 23.2799 503.19 21.8199 503.19 20.2699C503.19 18.2499 503.66 16.3999 504.59 14.7199C505.52 13.0299 506.81 11.6899 508.45 10.6799C510.09 9.66992 511.96 9.16992 514.05 9.16992C516.14 9.16992 518.07 9.67992 519.67 10.7099C521.27 11.7299 522.53 13.0799 523.45 14.7499C524.37 16.4199 524.83 18.2499 524.83 20.2499V20.8899C524.83 21.0999 524.82 21.2599 524.79 21.3699H506.16C506.3 22.9199 506.74 24.2999 507.48 25.4999C508.22 26.6999 509.18 27.6599 510.36 28.3699C511.54 29.0799 512.83 29.4299 514.22 29.4299C515.61 29.4299 516.98 29.0699 518.25 28.3399C519.52 27.6199 520.4 26.6699 520.9 25.4999L523.36 26.1699C522.91 27.1999 522.23 28.1299 521.31 28.9699C520.39 29.8099 519.31 30.4499 518.07 30.9099C516.83 31.3699 515.5 31.5999 514.08 31.5999L514.09 31.5899ZM506.07 19.3099H522.15C522.04 17.7399 521.61 16.3599 520.88 15.1799C520.14 13.9999 519.18 13.0699 518 12.3899C516.82 11.7199 515.51 11.3799 514.09 11.3799C512.67 11.3799 511.38 11.7199 510.21 12.3899C509.04 13.0599 508.09 13.9999 507.35 15.1999C506.61 16.3999 506.19 17.7699 506.08 19.3099H506.07Z" fill="white"/>
<path d="M529.33 0.689941H532.17V26.3999C532.17 27.4899 532.36 28.2099 532.75 28.5399C533.14 28.8799 533.61 29.0399 534.17 29.0399C534.67 29.0399 535.17 28.9799 535.67 28.8699C536.17 28.7599 536.6 28.6499 536.96 28.5399L537.46 30.8399C536.93 31.0599 536.28 31.2399 535.52 31.3799C534.75 31.5199 534.09 31.5899 533.54 31.5899C532.26 31.5899 531.24 31.2099 530.47 30.4599C529.7 29.6999 529.32 28.6699 529.32 27.3499V0.689941H529.33Z" fill="white"/>
<path d="M540.69 0.689941H543.53V26.3999C543.53 27.4899 543.72 28.2099 544.11 28.5399C544.5 28.8799 544.97 29.0399 545.53 29.0399C546.03 29.0399 546.53 28.9799 547.03 28.8699C547.53 28.7599 547.96 28.6499 548.32 28.5399L548.82 30.8399C548.29 31.0599 547.64 31.2399 546.88 31.3799C546.11 31.5199 545.45 31.5899 544.9 31.5899C543.62 31.5899 542.6 31.2099 541.83 30.4599C541.06 29.6999 540.68 28.6699 540.68 27.3499V0.689941H540.69Z" fill="white"/>
<path d="M551.93 4.85994V0.689941H554.77V4.86994H551.93V4.85994ZM551.93 31.1799V9.41994H554.77V31.1799H551.93Z" fill="white"/>
<path d="M569.76 31.5902C568.28 31.5902 566.92 31.2802 565.67 30.6702C564.42 30.0602 563.34 29.2302 562.43 28.1802C561.52 27.1402 560.82 25.9502 560.32 24.6102C559.82 23.2702 559.57 21.9002 559.57 20.4802C559.57 18.9502 559.81 17.5102 560.3 16.1602C560.79 14.8102 561.48 13.6102 562.39 12.5502C563.3 11.4902 564.36 10.6602 565.59 10.0602C566.81 9.46016 568.18 9.16016 569.68 9.16016C571.55 9.16016 573.17 9.63016 574.55 10.5602C575.93 11.4902 577.09 12.6502 578.04 14.0502V9.50016H580.59V31.2802C580.59 33.2802 580.11 34.9702 579.15 36.3402C578.19 37.7102 576.9 38.7502 575.27 39.4402C573.64 40.1302 571.87 40.4802 569.94 40.4802C567.46 40.4802 565.46 40.0302 563.93 39.1402C562.4 38.2502 561.15 37.0502 560.17 35.5502L561.92 34.1702C562.78 35.5302 563.93 36.5502 565.37 37.2202C566.8 37.8902 568.33 38.2202 569.94 38.2202C571.36 38.2202 572.66 37.9702 573.85 37.4602C575.03 36.9502 575.98 36.2002 576.69 35.1902C577.4 34.1802 577.75 32.9102 577.75 31.3702V27.0702C576.92 28.4302 575.77 29.5302 574.33 30.3502C572.88 31.1702 571.37 31.5802 569.78 31.5802L569.76 31.5902ZM570.55 29.2102C571.41 29.2102 572.24 29.0602 573.04 28.7502C573.84 28.4402 574.56 28.0302 575.23 27.5202C575.9 27.0102 576.46 26.4302 576.9 25.7902C577.35 25.1502 577.62 24.5002 577.73 23.8302V17.1102C577.31 16.0502 576.71 15.1102 575.93 14.2902C575.15 13.4702 574.27 12.8302 573.28 12.3702C572.29 11.9102 571.27 11.6802 570.21 11.6802C568.98 11.6802 567.89 11.9402 566.93 12.4502C565.97 12.9702 565.16 13.6502 564.51 14.5002C563.85 15.3502 563.35 16.3002 562.99 17.3602C562.63 18.4202 562.45 19.4802 562.45 20.5302C562.45 21.7002 562.66 22.8102 563.08 23.8502C563.5 24.8902 564.08 25.8302 564.81 26.6502C565.55 27.4702 566.41 28.1102 567.4 28.5502C568.39 28.9902 569.44 29.2202 570.55 29.2202V29.2102Z" fill="white"/>
<path d="M596.24 31.5899C594.68 31.5899 593.23 31.2899 591.9 30.6999C590.56 30.0999 589.41 29.2799 588.43 28.2399C587.45 27.1999 586.7 25.9999 586.15 24.6399C585.6 23.2799 585.34 21.8199 585.34 20.2699C585.34 18.2499 585.81 16.3999 586.74 14.7199C587.67 13.0299 588.96 11.6899 590.6 10.6799C592.24 9.66992 594.11 9.16992 596.2 9.16992C598.29 9.16992 600.22 9.67992 601.82 10.7099C603.42 11.7299 604.68 13.0799 605.6 14.7499C606.52 16.4199 606.98 18.2499 606.98 20.2499V20.8899C606.98 21.0999 606.97 21.2599 606.94 21.3699H588.31C588.45 22.9199 588.89 24.2999 589.63 25.4999C590.37 26.6999 591.33 27.6599 592.51 28.3699C593.69 29.0799 594.98 29.4299 596.37 29.4299C597.76 29.4299 599.13 29.0699 600.4 28.3399C601.67 27.6199 602.55 26.6699 603.05 25.4999L605.51 26.1699C605.06 27.1999 604.38 28.1299 603.46 28.9699C602.54 29.8099 601.46 30.4499 600.22 30.9099C598.98 31.3699 597.65 31.5999 596.23 31.5999L596.24 31.5899ZM588.22 19.3099H604.3C604.19 17.7399 603.76 16.3599 603.03 15.1799C602.29 13.9999 601.33 13.0699 600.15 12.3899C598.97 11.7199 597.66 11.3799 596.24 11.3799C594.82 11.3799 593.53 11.7199 592.36 12.3899C591.19 13.0599 590.24 13.9999 589.5 15.1999C588.76 16.3999 588.34 17.7699 588.23 19.3099H588.22Z" fill="white"/>
<path d="M629.65 31.1799H626.81V19.0999C626.81 16.5599 626.43 14.6999 625.68 13.5199C624.93 12.3399 623.74 11.7599 622.13 11.7599C621.02 11.7599 619.92 12.0299 618.83 12.5699C617.74 13.1099 616.79 13.8399 615.97 14.7699C615.15 15.6999 614.56 16.7499 614.2 17.9399V31.1899H611.36V9.49992H613.95V14.4399C614.53 13.3899 615.3 12.4699 616.25 11.6799C617.2 10.8899 618.27 10.2699 619.47 9.82992C620.67 9.38992 621.91 9.16992 623.19 9.16992C624.39 9.16992 625.4 9.38992 626.24 9.82992C627.07 10.2699 627.74 10.8999 628.24 11.7199C628.74 12.5399 629.1 13.5199 629.33 14.6699C629.55 15.8199 629.66 17.0999 629.66 18.5099V31.1799H629.65Z" fill="white"/>
<path d="M645.14 31.5902C643.55 31.5902 642.1 31.2902 640.78 30.7002C639.46 30.1002 638.3 29.2802 637.31 28.2302C636.32 27.1802 635.56 25.9702 635.01 24.6202C634.46 23.2702 634.2 21.8202 634.2 20.3002C634.2 18.2502 634.66 16.3802 635.58 14.6902C636.5 13.0002 637.78 11.6602 639.42 10.6602C641.06 9.66016 642.96 9.16016 645.1 9.16016C647.13 9.16016 648.93 9.63016 650.49 10.5602C652.05 11.4902 653.2 12.7502 653.96 14.3402L651.2 15.2202C650.59 14.1102 649.73 13.2402 648.63 12.6102C647.53 11.9802 646.31 11.6702 644.98 11.6702C643.53 11.6702 642.21 12.0402 641.01 12.7902C639.81 13.5402 638.86 14.5602 638.15 15.8602C637.44 17.1602 637.09 18.6402 637.09 20.3002C637.09 21.9602 637.45 23.4102 638.18 24.7402C638.9 26.0702 639.86 27.1202 641.06 27.9102C642.26 28.7002 643.58 29.0902 645.03 29.0902C645.98 29.0902 646.89 28.9202 647.77 28.5902C648.65 28.2602 649.41 27.8002 650.07 27.2302C650.72 26.6602 651.16 26.0402 651.39 25.3702L654.19 26.2102C653.8 27.2402 653.15 28.1702 652.25 28.9902C651.34 29.8102 650.29 30.4502 649.08 30.9102C647.87 31.3702 646.57 31.6002 645.17 31.6002L645.14 31.5902Z" fill="white"/>
<path d="M667.82 31.5899C666.26 31.5899 664.81 31.2899 663.48 30.6999C662.14 30.0999 660.99 29.2799 660.01 28.2399C659.03 27.1999 658.28 25.9999 657.73 24.6399C657.18 23.2799 656.92 21.8199 656.92 20.2699C656.92 18.2499 657.39 16.3999 658.32 14.7199C659.25 13.0299 660.54 11.6899 662.18 10.6799C663.82 9.66992 665.69 9.16992 667.78 9.16992C669.87 9.16992 671.8 9.67992 673.4 10.7099C675 11.7299 676.26 13.0799 677.18 14.7499C678.1 16.4199 678.56 18.2499 678.56 20.2499V20.8899C678.56 21.0999 678.55 21.2599 678.52 21.3699H659.89C660.03 22.9199 660.47 24.2999 661.21 25.4999C661.95 26.6999 662.91 27.6599 664.09 28.3699C665.27 29.0799 666.56 29.4299 667.95 29.4299C669.34 29.4299 670.71 29.0699 671.98 28.3399C673.25 27.6199 674.13 26.6699 674.63 25.4999L677.09 26.1699C676.64 27.1999 675.96 28.1299 675.04 28.9699C674.12 29.8099 673.04 30.4499 671.8 30.9099C670.56 31.3699 669.23 31.5999 667.81 31.5999L667.82 31.5899ZM659.8 19.3099H675.88C675.77 17.7399 675.34 16.3599 674.61 15.1799C673.87 13.9999 672.91 13.0699 671.73 12.3899C670.55 11.7199 669.24 11.3799 667.82 11.3799C666.4 11.3799 665.11 11.7199 663.94 12.3899C662.77 13.0599 661.82 13.9999 661.08 15.1999C660.34 16.3999 659.92 17.7699 659.81 19.3099H659.8Z" fill="white"/>
<path d="M457.16 79.1798V49.5298H469.44C470.72 49.5298 471.9 49.7998 472.97 50.3198C474.04 50.8498 474.97 51.5698 475.75 52.4698C476.53 53.3698 477.14 54.3798 477.59 55.4798C478.04 56.5798 478.26 57.6998 478.26 58.8398C478.26 60.4598 477.9 61.9798 477.19 63.4098C476.48 64.8398 475.48 66.0098 474.2 66.8998C472.92 67.7898 471.42 68.2398 469.69 68.2398H460.08V79.1798H457.16ZM460.09 65.6398H469.57C470.74 65.6398 471.76 65.3198 472.62 64.6798C473.48 64.0398 474.15 63.1998 474.62 62.1698C475.09 61.1398 475.33 60.0298 475.33 58.8298C475.33 57.6298 475.05 56.4798 474.5 55.4498C473.94 54.4198 473.21 53.6098 472.31 53.0098C471.4 52.4098 470.41 52.1098 469.32 52.1098H460.09V65.6398Z" fill="white"/>
<path d="M482.68 48.6902H485.52V74.4002C485.52 75.4902 485.71 76.2102 486.1 76.5402C486.49 76.8802 486.96 77.0402 487.52 77.0402C488.02 77.0402 488.52 76.9802 489.02 76.8702C489.52 76.7602 489.95 76.6502 490.31 76.5402L490.81 78.8402C490.28 79.0602 489.63 79.2402 488.87 79.3802C488.1 79.5202 487.44 79.5902 486.89 79.5902C485.61 79.5902 484.59 79.2102 483.82 78.4602C483.05 77.7002 482.67 76.6702 482.67 75.3502V48.6802L482.68 48.6902Z" fill="white"/>
<path d="M492.16 72.9499C492.16 71.5899 492.55 70.4299 493.33 69.4399C494.11 68.4599 495.19 67.6999 496.57 67.1599C497.95 66.6199 499.54 66.3499 501.35 66.3499C502.41 66.3499 503.51 66.4299 504.65 66.5999C505.79 66.7699 506.81 67.0199 507.7 67.3499V65.5199C507.7 63.6899 507.16 62.2399 506.07 61.1599C504.98 60.0799 503.48 59.5399 501.56 59.5399C500.39 59.5399 499.24 59.7599 498.11 60.1899C496.98 60.6199 495.81 61.2599 494.58 62.0899L493.49 60.0899C494.91 59.1199 496.3 58.3799 497.67 57.8999C499.03 57.4099 500.43 57.1699 501.85 57.1699C504.52 57.1699 506.64 57.9299 508.2 59.4499C509.76 60.9699 510.54 63.0699 510.54 65.7599V75.7599C510.54 76.1499 510.62 76.4299 510.79 76.6099C510.96 76.7899 511.22 76.8899 511.58 76.9199V79.1699C511.27 79.1999 511.01 79.2299 510.79 79.2499C510.57 79.2799 510.4 79.2799 510.29 79.2499C509.59 79.2199 509.06 78.9999 508.7 78.5799C508.34 78.1599 508.14 77.7199 508.12 77.2399L508.08 75.6499C507.1 76.8999 505.84 77.8699 504.28 78.5499C502.72 79.2299 501.13 79.5699 499.52 79.5699C498.13 79.5699 496.87 79.2699 495.74 78.6799C494.61 78.0899 493.74 77.2799 493.11 76.2699C492.48 75.2599 492.17 74.1499 492.17 72.9299L492.16 72.9499ZM506.74 74.6099C507.05 74.2199 507.28 73.8499 507.45 73.4899C507.62 73.1299 507.7 72.8099 507.7 72.5399V69.3899C506.75 69.0299 505.77 68.7599 504.76 68.5599C503.74 68.3699 502.72 68.2699 501.69 68.2699C499.66 68.2699 498.02 68.6699 496.76 69.4699C495.51 70.2699 494.88 71.3599 494.88 72.7399C494.88 73.5399 495.09 74.2899 495.51 74.9999C495.93 75.6999 496.54 76.2799 497.35 76.7399C498.16 77.1999 499.1 77.4199 500.19 77.4199C501.55 77.4199 502.83 77.1599 504.01 76.6299C505.19 76.1099 506.1 75.4299 506.75 74.5999L506.74 74.6099Z" fill="white"/>
<path d="M526.95 78.3002C526.73 78.3802 526.38 78.5402 525.91 78.7602C525.44 78.9802 524.87 79.1802 524.2 79.3402C523.53 79.5102 522.81 79.5902 522.03 79.5902C521.25 79.5902 520.46 79.4402 519.75 79.1302C519.04 78.8202 518.48 78.3502 518.06 77.7302C517.64 77.1002 517.43 76.3202 517.43 75.4002V59.7602H514.42V57.5102H517.43V50.1602H520.27V57.5102H525.28V59.7602H520.27V74.6202C520.32 75.4002 520.61 75.9902 521.13 76.3802C521.65 76.7702 522.24 76.9702 522.91 76.9702C523.69 76.9702 524.4 76.8402 525.04 76.5702C525.68 76.3002 526.07 76.1202 526.21 76.0102L526.96 78.3102L526.95 78.3002Z" fill="white"/>
<path d="M531.55 79.18V59.68H528.54V57.42H531.55V56.84C531.55 55.06 531.81 53.53 532.32 52.25C532.83 50.97 533.57 49.99 534.53 49.31C535.49 48.63 536.62 48.29 537.93 48.29C538.79 48.29 539.63 48.42 540.44 48.67C541.25 48.92 541.94 49.25 542.53 49.67L541.65 51.72C541.29 51.41 540.82 51.18 540.23 51.01C539.64 50.84 539.06 50.76 538.48 50.76C537.17 50.76 536.16 51.28 535.45 52.3C534.74 53.33 534.39 54.82 534.39 56.77V57.44H540.4V59.7H534.39V79.2H531.55V79.18Z" fill="white"/>
<path d="M552.89 79.5899C551.33 79.5899 549.89 79.2899 548.57 78.6999C547.25 78.0999 546.11 77.2899 545.15 76.2499C544.19 75.2099 543.44 74.0199 542.91 72.6799C542.38 71.3399 542.12 69.9199 542.12 68.4199C542.12 66.9199 542.38 65.4199 542.91 64.0799C543.44 62.7399 544.19 61.5499 545.17 60.5099C546.15 59.4699 547.29 58.6499 548.62 58.0599C549.94 57.4599 551.38 57.1699 552.94 57.1699C554.5 57.1699 555.93 57.4699 557.24 58.0599C558.55 58.6499 559.69 59.4699 560.66 60.5099C561.63 61.5499 562.39 62.7399 562.92 64.0799C563.45 65.4199 563.71 66.8699 563.71 68.4199C563.71 69.9699 563.45 71.3299 562.92 72.6799C562.39 74.0199 561.65 75.2099 560.69 76.2499C559.73 77.2899 558.59 78.1099 557.27 78.6999C555.95 79.2899 554.49 79.5899 552.91 79.5899H552.89ZM544.99 68.4599C544.99 70.0599 545.34 71.5199 546.05 72.8299C546.76 74.1399 547.71 75.1799 548.91 75.9399C550.11 76.6999 551.43 77.0799 552.88 77.0799C554.33 77.0799 555.65 76.6899 556.85 75.9199C558.05 75.1499 559.01 74.0899 559.73 72.7499C560.45 71.4099 560.82 69.9499 560.82 68.3699C560.82 66.7899 560.46 65.2999 559.73 63.9699C559.01 62.6399 558.04 61.5899 556.85 60.8199C555.65 60.0499 554.33 59.6599 552.88 59.6599C551.43 59.6599 550.12 60.0599 548.93 60.8599C547.75 61.6599 546.79 62.7199 546.07 64.0299C545.35 65.3399 544.98 66.8199 544.98 68.4499L544.99 68.4599Z" fill="white"/>
<path d="M579.32 59.9198C577.43 59.9798 575.76 60.4998 574.33 61.5098C572.9 62.5098 571.89 63.8898 571.3 65.6398V79.1698H568.46V57.4898H571.13V62.6298C571.88 61.0998 572.88 59.8598 574.12 58.9098C575.36 57.9598 576.67 57.4298 578.07 57.3198C578.35 57.2898 578.59 57.2798 578.8 57.2798C579.01 57.2798 579.18 57.2898 579.32 57.3198V59.9098V59.9198Z" fill="white"/>
<path d="M615.49 79.1802H612.65V67.1002C612.65 64.5802 612.25 62.7302 611.44 61.5402C610.63 60.3502 609.44 59.7502 607.85 59.7502C606.26 59.7502 604.74 60.3302 603.44 61.4902C602.15 62.6502 601.23 64.1502 600.7 65.9702V79.1702H597.86V67.0902C597.86 64.5502 597.47 62.6902 596.69 61.5102C595.91 60.3302 594.71 59.7502 593.1 59.7502C591.49 59.7502 590.02 60.3202 588.71 61.4502C587.4 62.5802 586.48 64.0702 585.95 65.9202V79.1702H583.11V57.4902H585.7V62.4302C586.62 60.7402 587.79 59.4402 589.23 58.5302C590.66 57.6202 592.26 57.1602 594.01 57.1602C595.76 57.1602 597.28 57.6702 598.39 58.7002C599.5 59.7202 600.19 61.0702 600.44 62.7302C601.44 60.9002 602.65 59.5202 604.05 58.5802C605.46 57.6402 607.05 57.1702 608.83 57.1702C610.05 57.1702 611.09 57.3902 611.94 57.8302C612.79 58.2702 613.47 58.9002 613.99 59.7202C614.5 60.5402 614.88 61.5202 615.12 62.6702C615.36 63.8202 615.48 65.1002 615.48 66.5102V79.1802H615.49Z" fill="white"/>
<path d="M422.69 0.669922H418.87V79.1199H422.69V0.669922Z" fill="white"/>
</g>
<defs>
<clipPath id="clip0_374_30">
<rect width="678.56" height="79.59" fill="white"/>
</clipPath>
</defs>
</svg>
