<?xml version="1.0" encoding="UTF-8"?>
<svg id="Capa_1" data-name="Capa 1" xmlns="http://www.w3.org/2000/svg" viewBox="0 0 829.52 79.5">
  <defs>
    <style>
      .cls-1 {
        fill: #1e1e1c;
      }
    </style>
  </defs>
  <path class="cls-1" d="M8.26,78.83H0V.67h8.26v78.16ZM57.95,42.77H7.37v-7.26h50.58v7.26ZM57.17.67h8.15v78.16h-8.15V.67Z"/>
  <path class="cls-1" d="M122.71,79.5c-5.88,0-11.33-.99-16.36-2.96-5.02-1.97-9.38-4.76-13.06-8.37-3.68-3.61-6.55-7.82-8.6-12.62-2.05-4.8-3.07-10.07-3.07-15.8s1.02-11,3.07-15.8c2.05-4.8,4.91-9.01,8.6-12.62,3.69-3.61,8.02-6.4,13.01-8.37,4.99-1.97,10.46-2.96,16.41-2.96s11.31.99,16.3,2.96c4.99,1.97,9.32,4.75,13.01,8.32,3.69,3.57,6.55,7.78,8.6,12.62,2.05,4.84,3.07,10.12,3.07,15.86s-1.02,11.02-3.07,15.86c-2.05,4.84-4.91,9.04-8.6,12.62-3.68,3.57-8.02,6.35-13.01,8.32-4.99,1.97-10.42,2.96-16.3,2.96ZM122.71,72.13c4.69,0,9.03-.8,13.01-2.4,3.98-1.6,7.44-3.87,10.38-6.81,2.94-2.94,5.23-6.37,6.87-10.27,1.64-3.91,2.46-8.21,2.46-12.9s-.82-8.99-2.46-12.9c-1.64-3.91-3.93-7.33-6.87-10.27-2.94-2.94-6.4-5.21-10.38-6.81-3.98-1.6-8.32-2.4-13.01-2.4s-9.04.8-13.06,2.4c-4.02,1.6-7.52,3.87-10.5,6.81-2.98,2.94-5.29,6.37-6.92,10.27-1.64,3.91-2.46,8.21-2.46,12.9s.82,8.9,2.46,12.84c1.64,3.95,3.94,7.39,6.92,10.33,2.98,2.94,6.48,5.21,10.5,6.81,4.02,1.6,8.37,2.4,13.06,2.4Z"/>
  <path class="cls-1" d="M211.48,79.5c-9.98,0-17.83-2.86-23.56-8.6-5.73-5.73-8.6-14.22-8.6-25.46V.67h8.26v44.44c0,9.23,2.08,16.04,6.25,20.43,4.17,4.39,10.05,6.59,17.64,6.59s13.58-2.2,17.75-6.59c4.17-4.39,6.25-11.2,6.25-20.43V.67h8.04v44.78c0,11.24-2.85,19.73-8.54,25.46-5.69,5.73-13.53,8.6-23.5,8.6Z"/>
  <path class="cls-1" d="M287.75,79.5c-5.81,0-11.37-.95-16.69-2.85-5.32-1.9-9.44-4.33-12.34-7.31l3.24-6.36c2.75,2.68,6.46,4.93,11.11,6.75,4.65,1.83,9.55,2.74,14.68,2.74s8.91-.61,12-1.84c3.09-1.23,5.36-2.88,6.81-4.97,1.45-2.08,2.18-4.39,2.18-6.92,0-3.05-.88-5.51-2.62-7.37-1.75-1.86-4.04-3.33-6.87-4.41-2.83-1.08-5.96-2.03-9.38-2.85-3.42-.82-6.85-1.69-10.27-2.62-3.42-.93-6.57-2.18-9.44-3.74-2.87-1.56-5.17-3.63-6.92-6.2-1.75-2.57-2.62-5.94-2.62-10.11,0-3.87,1.02-7.42,3.07-10.66,2.05-3.24,5.19-5.84,9.44-7.82,4.24-1.97,9.68-2.96,16.3-2.96,4.39,0,8.75.61,13.06,1.84,4.32,1.23,8.04,2.92,11.17,5.08l-2.79,6.59c-3.35-2.23-6.91-3.87-10.66-4.91-3.76-1.04-7.39-1.56-10.89-1.56-4.69,0-8.56.63-11.61,1.9-3.05,1.27-5.3,2.96-6.76,5.08-1.45,2.12-2.18,4.52-2.18,7.2,0,3.05.87,5.51,2.62,7.37,1.75,1.86,4.06,3.31,6.92,4.35,2.86,1.04,6.01,1.97,9.44,2.79,3.42.82,6.83,1.71,10.22,2.68,3.39.97,6.51,2.22,9.38,3.74,2.86,1.53,5.17,3.56,6.92,6.09,1.75,2.53,2.62,5.84,2.62,9.94,0,3.8-1.04,7.31-3.13,10.55-2.08,3.24-5.27,5.84-9.55,7.82-4.28,1.97-9.77,2.96-16.47,2.96Z"/>
  <path class="cls-1" d="M340.89,71.69h47.01v7.15h-55.27V.67h53.6v7.15h-45.33v63.87ZM340,35.62h41.31v7.04h-41.31v-7.04Z"/>
  <path class="cls-1" d="M465.06,79.17c-5.81,0-11.17-.99-16.08-2.96-4.91-1.97-9.19-4.75-12.84-8.32-3.65-3.57-6.48-7.74-8.49-12.51-2.01-4.76-3.02-9.97-3.02-15.63s1-10.87,3.02-15.63c2.01-4.76,4.84-8.93,8.49-12.51,3.65-3.57,7.93-6.35,12.84-8.32,4.91-1.97,10.27-2.96,16.08-2.96,5.28,0,10.25.82,14.91,2.46,4.65,1.64,8.65,4.13,12,7.48l-1.34,1.56c-3.57-3.42-7.5-5.84-11.78-7.26-4.28-1.41-8.88-2.12-13.79-2.12-5.44,0-10.48.95-15.13,2.85s-8.71,4.54-12.17,7.93c-3.46,3.39-6.14,7.33-8.04,11.84-1.9,4.5-2.85,9.4-2.85,14.68s.95,10.18,2.85,14.68c1.9,4.5,4.58,8.45,8.04,11.84,3.46,3.39,7.52,6.03,12.17,7.93s9.7,2.85,15.13,2.85c4.91,0,9.55-.74,13.9-2.23,4.35-1.49,8.24-3.95,11.67-7.37l1.34,1.67c-3.35,3.35-7.35,5.86-12,7.54-4.65,1.67-9.62,2.51-14.91,2.51ZM489.85,69.12v-28.58h2.12v28.58h-2.12Z"/>
  <path class="cls-1" d="M517.09,78.83V.67h26.46c6.4,0,11.89,1.02,16.47,3.07,4.58,2.05,8.1,4.97,10.55,8.77,2.46,3.8,3.68,8.41,3.68,13.85s-1.23,9.96-3.68,13.79c-2.46,3.83-5.97,6.77-10.55,8.82-4.58,2.05-10.07,3.07-16.47,3.07h-25.24l1.01-1v27.8h-2.23ZM519.33,50.81l-1.01-.89h25.46c9.16,0,16.15-2.07,20.99-6.2,4.84-4.13,7.26-9.92,7.26-17.36s-2.42-13.32-7.26-17.42c-4.84-4.09-11.84-6.14-20.99-6.14h-25.46l1.01-.89v48.91ZM572.59,78.83l-20.43-28.36h2.79l20.43,28.36h-2.79Z"/>
  <path class="cls-1" d="M626.63,79.17c-5.73,0-11.04-.99-15.91-2.96-4.88-1.97-9.12-4.75-12.73-8.32-3.61-3.57-6.42-7.74-8.43-12.51-2.01-4.76-3.01-9.97-3.01-15.63s1-10.87,3.01-15.63c2.01-4.76,4.82-8.93,8.43-12.51,3.61-3.57,7.85-6.35,12.73-8.32,4.88-1.97,10.18-2.96,15.91-2.96s11.04.99,15.91,2.96c4.88,1.97,9.12,4.75,12.73,8.32,3.61,3.57,6.42,7.74,8.43,12.51,2.01,4.76,3.02,9.98,3.02,15.63s-1.01,10.87-3.02,15.63c-2.01,4.76-4.82,8.93-8.43,12.51-3.61,3.57-7.86,6.35-12.73,8.32-4.88,1.97-10.18,2.96-15.91,2.96ZM626.63,77.05c5.36,0,10.35-.93,14.96-2.79,4.61-1.86,8.63-4.48,12.06-7.87,3.42-3.39,6.08-7.33,7.98-11.84,1.9-4.5,2.85-9.44,2.85-14.79s-.95-10.29-2.85-14.79c-1.9-4.5-4.56-8.45-7.98-11.84-3.43-3.39-7.45-6.01-12.06-7.87-4.62-1.86-9.6-2.79-14.96-2.79s-10.35.93-14.96,2.79c-4.62,1.86-8.64,4.49-12.06,7.87-3.42,3.39-6.08,7.33-7.98,11.84-1.9,4.5-2.85,9.44-2.85,14.79s.95,10.29,2.85,14.79c1.9,4.5,4.56,8.45,7.98,11.84,3.42,3.39,7.44,6.01,12.06,7.87,4.61,1.86,9.6,2.79,14.96,2.79Z"/>
  <path class="cls-1" d="M715.4,79.17c-9.31,0-16.66-2.75-22.05-8.26-5.4-5.51-8.1-13.77-8.1-24.79V.67h2.23v45.33c0,10.42,2.44,18.2,7.31,23.34,4.88,5.14,11.74,7.71,20.6,7.71s15.72-2.57,20.6-7.71c4.87-5.14,7.31-12.91,7.31-23.34V.67h2.23v45.45c0,11.02-2.7,19.28-8.1,24.79-5.4,5.51-12.75,8.26-22.05,8.26Z"/>
  <path class="cls-1" d="M772.35,78.83V.67h26.46c6.4,0,11.89,1.02,16.47,3.07,4.58,2.05,8.09,4.97,10.55,8.77,2.46,3.8,3.69,8.41,3.69,13.85s-1.23,9.96-3.69,13.79c-2.46,3.83-5.97,6.77-10.55,8.82-4.58,2.05-10.07,3.07-16.47,3.07h-25.23l1-1v27.8h-2.23ZM774.58,50.81l-1-.89h25.46c9.16,0,16.15-2.07,20.99-6.2,4.84-4.13,7.26-9.92,7.26-17.36s-2.42-13.32-7.26-17.42c-4.84-4.09-11.84-6.14-20.99-6.14h-25.46l1-.89v48.91Z"/>
</svg>