<svg width="400" height="473" viewBox="0 0 400 473" fill="none" xmlns="http://www.w3.org/2000/svg">
<path d="M51.1419 409.927C25.0007 381.828 9.23917 349.046 2.84037 311.623C-3.10268 276.866 0.219856 243.073 13.3797 210.377C22.7849 187.009 37.3127 167.071 55.3031 149.531C63.6888 141.355 72.8082 134.172 82.4831 127.609C85.5211 125.549 87.573 125.475 90.0893 128.408C95.6605 134.903 102.939 139.348 109.966 143.628C110.08 145.993 108.677 147.076 107.627 148.29C97.4856 160.023 93.2861 173.955 92.5024 189.135C92.2549 193.931 91.6057 198.69 92.3519 203.556C92.7727 206.299 93.7619 207.753 96.3633 208.44C107.324 211.337 118.489 211.133 129.589 210.137C139.838 209.218 149.962 207.149 159.868 204.297C162.802 203.452 163.958 204.354 165.163 206.918C173.994 225.703 187.769 239.534 206.537 248.602C210.889 250.705 213.869 249.97 217.453 247.505C233.817 236.252 243.867 220.553 249.843 201.97C252.241 194.513 252.114 194.473 260.037 194.881C280.78 195.95 300.245 191.129 318.82 182.161C321.847 180.699 323.146 179.018 322.309 175.136C317.346 152.131 306.41 132.945 287.337 118.889C290.062 113.086 291.727 112.354 296.853 115.046C350.183 143.058 382.434 187.044 395.5 245.5C398.007 256.717 399.411 268.202 399.237 279.598C398.829 306.387 394.256 332.516 382.893 357.036C353.924 419.547 304.817 456.946 237.614 469.033C172.756 480.698 114.282 464.67 63.5881 422.004C59.267 418.368 55.4479 414.134 51.1419 409.927Z" fill="#4361EE"/>
<path d="M287.291 99.977C280.932 107.051 273.606 112.585 266.933 118.754C267.971 121.59 270.477 122.132 272.355 123.294C289.653 133.996 301.251 149.064 307.573 168.367C308.728 171.894 307.854 173.476 304.491 174.64C293.585 178.416 282.461 181.025 270.883 181.219C262.103 181.365 253.302 182.297 244.544 180.725C241.199 180.125 240.837 182.383 240.496 184.948C238.507 199.936 233.882 213.993 223.172 225.037C210.676 237.922 212.451 238.404 197.244 227.419C185.719 219.094 178.626 207.179 173.994 193.825C171.783 187.451 171.584 187.216 165.107 189.384C151.643 193.89 137.884 196.861 123.722 198.004C118.527 198.424 113.425 197.824 108.289 197.274C105.693 196.996 105.649 195.62 105.709 193.505C106.267 173.858 112.953 157.142 128.695 144.657C129.737 143.831 130.729 142.936 131.675 142.002C132.002 141.678 132.117 141.138 132.352 140.648C131.447 138.302 129.189 137.799 127.283 136.986C112.623 130.735 100.158 121.549 89.6566 109.557C84.0445 103.148 84.3013 100.698 91.98 96.8196C104.8 90.3447 118.589 87.8429 132.763 86.4089C147.679 84.8997 161.839 87.0014 175.689 92.5996C181.673 95.0183 185.98 91.2915 184.815 85.0897C180.267 60.8644 168.834 41.1201 146.963 28.5595C142.204 25.826 142.533 21.9245 143.076 17.8157C143.397 15.3872 144.433 13.0181 145.368 10.7118C150.017 -0.750515 155.518 -2.78045 166.312 3.50571C185.09 14.4424 197.279 30.9659 205.289 50.8113C209.158 60.3987 211.925 70.2873 212.588 80.693C212.881 85.2847 214.617 86.3514 218.729 84.4998C242.206 73.9255 265.74 76.3925 289.227 84.2798C296.461 86.7092 296.949 89.2384 291.995 94.9903C290.583 96.63 289.027 98.1452 287.291 99.977ZM181.147 155.428C193.092 163.849 205.832 163.909 218.467 157.847C229.153 152.72 231.171 141.677 223.948 132.253C214.943 120.505 202.699 120.421 189.984 123.422C173.531 127.304 169.247 142.164 181.147 155.428Z" fill="#4361EE"/>
<path d="M211.412 139.301C213.529 141.024 215.802 142.607 215.003 145.167C214.32 147.359 211.719 147.648 209.64 148.265C204.499 149.792 199.481 149.567 194.585 147.375C192.687 146.526 191.054 145.24 191.086 142.97C191.117 140.802 192.919 139.993 194.661 139.306C200.104 137.159 205.57 136.543 211.412 139.301Z" fill="#4361EE"/>
</svg>
