<svg width="186" height="68" viewBox="0 0 186 68" fill="none" xmlns="http://www.w3.org/2000/svg">
<g clip-path="url(#clip0_1_87)">
<path d="M126.92 60.99L133.94 45.09C140.04 48.69 148.17 51.01 155.29 51.01C161.48 51.01 163.7 49.72 163.7 47.5C163.7 39.37 127.93 45.93 127.93 21.81C127.93 9.8 138 0 158.06 0C166.75 0 175.71 1.85 182.46 5.64L175.9 21.44C169.52 18.21 163.52 16.63 157.88 16.63C151.5 16.63 149.47 18.48 149.47 20.7C149.47 28.46 185.24 21.99 185.24 45.84C185.24 57.67 175.17 67.65 155.11 67.65C144.3 67.65 133.39 64.97 126.92 61" fill="#A5759D"/>
<path d="M0 0H21.25V26.1H42.51V0H63.77V67.65H42.51V41.55H21.25V67.65H0V0Z" fill="#A5759D"/>
<path d="M96.76 16.91C111.98 16.91 122.13 27.06 122.13 42.28C122.13 57.5 111.98 67.65 96.76 67.65C81.54 67.65 71.39 57.5 71.39 42.28C71.39 27.06 81.54 16.91 96.76 16.91ZM96.76 54.1C102.67 54.1 106.49 49.38 106.49 42.28C106.49 35.18 102.67 30.46 96.76 30.46C90.85 30.46 87.03 35.18 87.03 42.28C87.03 49.38 90.85 54.1 96.76 54.1Z" fill="#A5759D"/>
</g>
<defs>
<clipPath id="clip0_1_87">
<rect width="185.23" height="67.65" fill="white"/>
</clipPath>
</defs>
</svg>
